<svg width="193" height="125" xmlns="http://www.w3.org/2000/svg" xmlns:xlink="http://www.w3.org/1999/xlink" xml:space="preserve" overflow="hidden"><g transform="translate(-203 -183)"><path d="M162.281 109.994C138.93 109.994 139.047 102.226 140.197 99.9028 141.91 96.4296 146.487 96.1949 146.487 96.1949 146.487 96.1949 147.285 101.029 142.685 103.212 140.737 104.127 138.836 103.048 136.794 102.907 135.175 102.813 133.368 102.93 131.561 104.573L128.557 107.248C125.999 109.337 124.638 109.783 120.062 110.675 115.274 111.59 112.599 111.965 108.023 110.041 104.151 108.422 99.9732 104.432 100.184 99.9028 100.325 97.1102 101.264 95.5143 103.705 94.3175 105.113 93.6369 107.858 92.839 107.952 90.9146 108.164 86.1037 103.634 82.3958 100.771 78.9695 99.5274 77.491 97.2744 73.5015 100.536 71.272 103.799 69.0426 102.132 65.7571 100.912 63.8562 99.6212 61.791 97.7673 60.2421 98.1193 58.083 98.5652 55.2434 101.405 56.3934 102.344 54.1404 102.954 52.7089 101.639 51.4886 101.311 50.1744 100.935 48.7194 101.123 48.1327 102.179 47.3817 103.446 46.4899 105.16 46.2083 106.943 46.3022 108.07 46.3491 109.22 46.5603 110.299 46.8185 110.299 46.8185 130.083 63.0113 135.011 66.8366 136.912 68.3151 138.953 69.6527 141.277 70.3568 142.544 70.7322 144.116 70.8261 145.219 71.6475 146.463 72.5627 146.909 74.2524 148.153 75.2146 149.35 76.1299 151.251 75.4962 152.494 75.0503 154.372 74.3698 156.202 73.6188 158.056 72.9148 164.463 70.4741 170.706 67.658 176.924 64.7479 179.858 63.3868 183.495 62.2369 186.124 60.3594 187.978 59.0452 190.817 56.8392 190.09 54.2108 189.597 52.4508 188.236 50.808 187.321 49.2591 185.443 46.1144 183.66 42.8993 181.477 39.9424 181.383 39.825 182.087 38.0884 182.158 37.7833 184.129 28.6308 188.682 19.5722 180.257 8.35457 177.863 5.16294 172.583 3.1447 168.523 2.4876 162.257 1.45501 153.386 2.93349 147.05 5.28028 142.896 6.82916 139.188 9.26982 135.903 12.1798 132.429 15.2307 129.003 18.7509 127.712 23.3271 127.407 24.3597 127.243 25.4157 127.219 26.4718 127.196 27.3166 127.29 28.1615 127.313 29.0298 127.079 28.3492 127.665 27.5748 128.017 27.035 128.463 26.3779 128.933 25.6504 129.566 25.1341 130.153 24.6648 130.951 24.6413 131.631 24.3362 132.101 24.125 132.476 23.7495 132.734 23.3036 133.016 22.8343 133.016 22.3414 133.204 21.8486 133.955 19.76 135.339 18.305 136.959 16.8734 138.719 15.348 140.643 14.0103 142.685 12.9073 142.99 12.7431 143.318 12.5788 143.624 12.4145 147.308 10.6075 150.148 9.10554 154.982 8.44844 158.361 8.00255 162.468 8.00255 165.824 8.65965 171.269 9.76265 177.582 15.1368 177.957 21.0272 178.074 23.022 176.807 23.9138 176.338 25.6269 175.868 27.434 177.722 29.9685 178.403 31.5878 179.318 33.7938 180.187 36.1171 180.914 38.3465 179.389 33.5591 176.878 29.1706 174.507 24.7586 172.043 20.1589 169.649 15.5123 167.068 10.9595 166.646 11.1238 166.153 11.0768 165.707 11.1238 162.539 11.4758 159.394 12.6023 156.367 13.5644 153.363 14.5266 150.406 15.6766 147.519 16.9673 141.77 19.5722 136.302 22.8577 131.397 26.8473 130.153 27.8564 128.886 28.9125 127.642 29.9216 127.102 30.3675 127.102 30.4613 127.173 31.1654 127.548 34.8029 129.519 38.3465 131.115 41.5616 133.415 46.2787 135.879 51.0896 138.367 55.7597 140.596 59.937 142.38 63.1756 144.727 68.362 143.835 66.4376 142.685 64.5133 141.629 62.9644 140.361 61.1104 139.352 59.2564 138.015 57.4494 136.747 55.7363 134.143 52.615 134.143 52.615 134.143 52.615 133.368 52.9201 132.711 52.7793 131.655 52.5446 130.388 51.6998 129.472 51.2539 124.967 49.0714 120.461 46.8889 115.955 44.7533L110.299 43.1809C109.173 42.9932 108.023 42.8759 106.896 42.8993 105.652 42.9228 104.432 43.134 103.282 43.6738 101.639 44.4247 99.5978 45.5981 99.2223 47.5225 98.7999 49.6346 100.466 53.0844 98.6356 54.7037 97.5795 55.6189 96.0541 56.2291 95.397 57.5902 94.9277 58.5993 95.5378 59.7258 95.8664 60.6645 96.7347 63.1521 99.41 69.5588 96.3827 70.8731 93.3553 72.1873 93.5196 76.0829 94.9277 78.2889 97.1102 81.6683 99.4335 84.4844 100.771 87.1128 101.78 89.0841 102.015 91.3371 101.006 93.191 100.278 94.5287 96.0072 96.2888 94.9277 97.3683 91.9003 100.349 98.2601 104.244 96.3357 107.366 94.9277 109.619 92.0176 110.675 89.6943 111.355L90.8442 106.662C91.736 102.179 91.6187 98.307 91.0554 93.8247 90.0933 86.2211 87.2771 78.993 84.7661 74.0178 84.461 73.3841 82.6774 69.9813 81.4571 68.3151 84.8365 66.7896 87.7465 62.894 86.9251 59.0687 86.2915 56.1821 84.2967 53.765 82.255 51.7232 78.6644 48.1092 73.5015 45.5512 71.4128 40.6229 71.2485 40.2474 71.1077 39.6842 71.1077 39.2618 71.1077 38.722 71.3189 38.6751 71.5536 38.2996 71.1781 38.9332 70.4272 39.2383 69.8874 39.7312 69.3476 40.224 68.9252 40.8341 68.6201 41.5147 68.0569 42.782 67.9865 44.2605 68.4089 45.5747 68.7844 46.7246 69.2068 47.7102 69.817 48.7663 71.4363 51.512 74.8626 53.3191 77.3737 55.1496 78.7113 56.1117 80.2133 57.0505 80.8469 58.6463 81.856 61.1573 80.4949 65.2173 77.9838 66.3907 76.5288 67.0478 74.7687 66.7427 73.2668 66.3907 71.8118 66.0387 70.4037 65.3816 69.3242 64.3255 65.4285 60.4768 63.4337 55.924 61.6971 50.8549 61.0635 49.001 60.3829 46.9593 60.4064 44.988 60.4298 43.5799 61.8144 43.2279 62.9409 43.8615 62.3542 42.0779 62.3307 38.6751 65.4989 37.314 65.6162 41.1392 68.1508 44.2839 70.3568 45.4808 73.3137 47.1001 74.6279 48.0857 76.7635 50.1978 79.0868 52.4742 82.5366 55.8067 83.4049 58.9748 84.7191 63.7857 81.0581 69.1599 75.2616 69.5588 59.4442 70.6853 63.0348 53.4129 53.8588 48.1092 55.4781 48.3673 57.0739 48.6724 58.5524 49.0714 58.5759 48.4377 58.3177 47.5929 58.083 47.2643 63.3399 49.4469 68.6436 53.0844 72.5862 57.3321 74.534 59.4207 76.4349 61.744 77.7257 64.349 78.6879 66.3203 79.8613 68.1742 80.9877 70.169 83.4284 74.534 84.0855 76.9278 85.3997 81.0347 86.9486 85.8925 87.8403 90.9616 87.9811 95.9368 88.122 101.029 84.2498 106.403 86.9016 111.074 87.7699 108.633 87.371 104.456 86.0098 102.32 82.1846 96.3123 80.5184 92.487 72.8678 86.9955 65.2173 81.504 55.4781 82.1611 49.6346 73.1964 47.4756 86.3619 52.5212 95.5143 62.542 100.654 72.5627 105.793 77.4675 104.526 82.0907 106.521 87.6995 108.938 84.7895 117.738 81.6683 120.179 74.1351 126.046 63.8796 116.19 59.0218 111.261 55.2434 107.436 49.353 104.643 44.1196 103.564 39.6373 102.625 30.6725 100.255 27.8329 105.582 25.4392 110.088 34.1223 110.768 35.9059 107.272 38.2292 102.719 31.7286 98.8233 28.3492 97.7438 24.8525 96.6408 21.2619 96.8286 17.6479 97.1571 12.6257 97.6265 7.93215 97.9785 2.91002 97.3214" stroke="#FFFFFF" stroke-width="0.846079" stroke-linecap="round" stroke-linejoin="round" stroke-miterlimit="10" fill="none" transform="matrix(1 0 0 1.0045 203 183.03)"/></g></svg>