<svg width="126" height="50" xmlns="http://www.w3.org/2000/svg" xmlns:xlink="http://www.w3.org/1999/xlink" xml:space="preserve" overflow="hidden"><g transform="translate(-254 -454)"><path d="M125.608 40.6725 118.332 40.6725C113.944 40.6725 108.72 39.0767 108.72 31.421L108.72 9.3465 112.975 9.3465 112.975 9.53647 112.842 31.554C112.842 35.2014 114.495 36.8161 118.218 36.8161L125.608 36.8161 125.608 40.6725Z" fill="#FFFFFF" transform="matrix(1.00266 0 0 1 254.029 454)"/><path d="M87.234 40.6725 82.9787 40.6725 82.9787 9.3465 93.1421 9.3465C100.247 9.3465 104.331 13.4309 104.331 20.5357 104.331 27.2226 99.829 31.7249 93.1421 31.7249L87.234 31.7249 87.234 40.6725ZM87.234 28.0015 92.6672 28.0015C95.3837 28.0015 99.962 27.0327 99.962 20.5357 99.962 15.5965 97.5114 13.0889 92.6672 13.0889L87.234 13.0889 87.234 28.0015Z" fill="#FFFFFF" transform="matrix(1.00266 0 0 1 254.029 454)"/><path d="M66.7173 41.1664C59.8024 41.1664 55.5091 37.1771 55.5091 30.7751L55.5091 9.3465 59.7644 9.3465 59.7644 30.7941C59.7644 36.0942 63.5448 37.215 66.7173 37.215 69.8898 37.215 73.6702 36.0942 73.6702 30.7941L73.6702 9.3465 77.9255 9.3465 77.9255 30.7751C77.9255 37.1771 73.6322 41.1664 66.7173 41.1664" fill="#FFFFFF" transform="matrix(1.00266 0 0 1 254.029 454)"/><path d="M9.25152 20.0228C9.25152 20.0228 9.13754 17.9141 9.17553 16.6603 9.21353 15.4065 9.32751 13.2979 9.93541 11.1512 10.5433 8.96657 11.7021 6.38298 14.1337 4.16033 16.5464 1.95669 19.9468 0.721884 23.4233 0.759878 26.8997 0.797872 31.212 2.27964 35.2014 5.30015 39.1337 8.28267 42.2682 12.0631 44.5669 15.9195 45.8967 18.2181 46.9415 20.3457 47.5874 22.0365 48.5372 24.4871 48.9932 26.2348 48.9932 26.2348 48.9932 26.2348 48.7272 27.2606 48.1953 28.8754 47.3974 31.25 46.0486 34.4605 44.2629 37.215 41.8883 40.8055 38.9438 43.674 35.9992 45.5547 34.1185 46.7325 32.9787 47.2454 32.9787 47.2454 32.9787 47.2454 31.459 46.9415 29.6543 46.4476 27.8875 45.9157 27.0517 45.4217 27.0517 45.4217 27.0517 45.4217 27.8115 45.1558 28.9324 44.6239 30.8891 43.674 33.3587 41.9073 35.3913 39.0388 38.6398 34.4985 39.5517 29.7112 39.9316 26.8807 40.3495 23.9362 40.1976 19.6239 38.0509 15.8815 36.5691 13.2789 33.8526 10.5623 29.6733 9.3465 27.8685 8.81459 25.057 8.32067 21.5046 9.11854 16.4134 10.2584 13.3359 13.6968 11.9111 15.4635 11.2272 16.2994 10.5433 17.3822 10.1064 18.2181 9.59346 19.3009 9.25152 20.0228 9.25152 20.0228" fill="#FFFFFF" transform="matrix(1.00266 0 0 1 254.029 454)"/><path d="M9.66945 22.1315C9.66945 22.1315 10.0114 21.2576 10.6573 19.8328 10.8853 19.3009 11.5312 18.0281 12.8419 16.2804 14.1527 14.5327 16.0904 12.614 18.3511 11.4362 20.9157 10.1064 23.9742 9.44149 27.0327 9.84043 30.0912 10.2204 32.8457 11.4932 34.9734 13.5448 37.1201 15.6155 38.5638 18.674 38.9058 22.0745 39.2477 25.247 38.6018 29.8252 36.7211 34.0426 34.5365 38.8868 31.478 41.6793 28.7424 43.1421 26.8997 44.0919 25.6079 44.3959 25.6079 44.3959 25.6079 44.3959 24.772 44.0539 22.1695 41.9073 19.5669 39.7606 17.4772 37.728 15.0646 34.3655 13.3359 31.9909 11.7781 28.8944 10.9422 26.5957 10.1634 24.3541 9.66945 22.1315 9.66945 22.1315" fill="#FFFFFF" transform="matrix(1.00266 0 0 1 254.029 454)"/><path d="M28.0205 0.493921C28.0205 0.493921 29.1603 0.569909 30.2052 0.759878 31.193 0.949848 32.1239 1.13982 33.1117 1.40578 33.8716 1.63374 36.0182 2.20365 38.6208 3.51444 40.8435 4.61626 42.7432 6.04103 44.0919 7.29483 45.1558 8.32067 46.0866 9.44149 46.8465 10.5053 48.1003 12.31 48.8412 14.4377 49.0312 15.0836 49.4111 16.3374 49.867 18.0661 49.943 20.4027 50.019 22.8153 49.6771 24.4871 49.6771 24.4871 49.6771 24.4871 49.4111 23.4233 49.2211 22.6824 48.9932 21.8465 48.2333 20.0418 47.2644 18.2181 46.3146 16.3374 45.1558 14.4377 44.2059 13.0889 42.0213 10.0304 40.6155 8.58663 39.4377 7.42781 38.1459 6.13602 36.3032 4.67325 35.1634 3.87538 32.3708 2.03267 30.965 1.57675 30.2242 1.2538 29.4263 0.911854 28.0205 0.493921 28.0205 0.493921" fill="#FFFFFF" transform="matrix(1.00266 0 0 1 254.029 454)"/><path d="M49.6391 28.7804C49.6391 28.7804 49.4111 29.8062 49.0691 30.7751 48.7272 31.6869 47.9293 33.6816 47.1884 35.1254 46.7325 35.9992 45.8207 37.728 44.8518 39.0578 43.864 40.4255 42.7052 41.8883 41.4134 43.1801 40.7675 43.826 39.5707 44.9848 37.9749 46.0866 37.367 46.5046 36.8351 46.8465 36.4172 47.0745 35.7333 47.4544 35.3533 47.6064 35.3533 47.6064 35.3533 47.6064 36.0752 47.6444 37.652 47.4544 39.4567 47.2264 41.1664 46.7705 43.1991 45.5357 43.959 45.0798 45.8777 43.731 47.3214 41.7933 48.6892 39.9506 49.3541 37.8989 49.696 35.8283 50 33.9476 49.962 31.44 49.848 30.4711 49.715 29.6163 49.6391 28.7804 49.6391 28.7804" fill="#FFFFFF" transform="matrix(1.00266 0 0 1 254.029 454)"/><path d="M25.228 46.0106C25.228 46.0106 25.9498 46.4286 26.6337 46.7705 27.5456 47.2264 28.7804 47.6824 29.8442 47.9483 30.5281 48.1383 30.946 48.2143 30.946 48.2143 30.946 48.2143 29.7682 48.5562 28.3435 48.8602 27.6976 49.0122 25.9309 49.3921 23.6892 49.4681 23.1193 49.4681 21.2766 49.5441 18.807 49.0881 16.5843 48.7082 13.6778 47.7584 11.4742 46.3336 7.65577 43.921 5.6231 41.4514 4.48328 39.6467 2.75456 37.0251 0.645897 32.5988 0.417933 26.5957 0.227964 21.9415 0.645897 18.541 2.67857 14.0957 3.59043 12.1201 5.31915 9.55547 7.14286 7.71277 9.55547 5.37614 12.0251 3.97036 12.462 3.70441 13.3739 3.17249 14.0198 2.94453 14.0198 2.94453 14.0198 2.94453 13.4878 3.32447 12.69 4.12234 11.8921 4.88222 10.8473 6.07903 9.89742 8.01672 7.92173 12.0061 7.73176 16.4324 7.99772 18.997 8.22568 21.4476 8.37766 22.0935 8.37766 22.0935 8.37766 22.0935 6.97188 25.6079 7.12386 29.9582 7.19985 32.2188 7.57979 34.9734 8.89058 37.709 10.0684 40.2356 11.5312 41.6793 12.329 42.4012 14.0578 43.997 16.1474 45.2698 18.712 45.9157 22.2454 46.8085 25.228 46.0106 25.228 46.0106" fill="#FFFFFF" transform="matrix(1.00266 0 0 1 254.029 454)"/><path d="M8.94757 24.5441C8.94757 24.5441 8.68161 25.6459 8.60562 27.0327 8.52964 28.4005 8.37766 30.7751 9.02356 33.5676 9.55547 35.8283 10.3153 37.386 11.2842 38.8868 12.31 40.4825 13.8488 41.7553 14.8366 42.4772 16.5653 43.655 18.3511 44.3579 20.1178 44.6998 21.9985 45.0418 23.5942 44.8518 23.5942 44.8518 23.5942 44.8518 22.2264 44.1679 20.8017 42.9331 20.1178 42.3252 18.655 41.1284 17.1733 39.4947 15.8055 38.0129 14.4187 36.2082 13.3169 34.5555 11.1702 31.383 9.65046 27.3746 9.3465 26.2538 9.06155 25.152 8.94757 24.5441 8.94757 24.5441" fill="#FFFFFF" transform="matrix(1.00266 0 0 1 254.029 454)"/></g></svg>