<svg width="184" height="42" xmlns="http://www.w3.org/2000/svg" xmlns:xlink="http://www.w3.org/1999/xlink" xml:space="preserve" overflow="hidden"><g transform="translate(-149 -121)"><path d="M72.1645 9.28705C74.4189 9.28705 76.0852 9.67911 77.2124 10.4632 78.3396 11.2474 78.9031 12.5706 78.9031 14.4329 78.9031 15.8786 78.5111 17.0058 77.7515 17.8145 76.9918 18.6231 76.0362 19.2112 74.909 19.5298L80.0548 28.0327 78.2415 28.0327 73.4632 19.9463 69.0035 19.9463 69.0035 28.0327 67.4842 28.0327 67.4842 9.28705 72.1645 9.28705ZM72.0175 10.6348 69.0035 10.6348 69.0035 18.6476 72.5566 18.6476C74.0758 18.6476 75.252 18.3046 76.0852 17.5939 76.9183 16.8833 77.3349 15.8541 77.3349 14.5064 77.3349 13.0607 76.8938 12.056 76.0117 11.4924 75.1295 10.9288 73.8063 10.6348 72.0175 10.6348Z" fill="#FFFFFF" transform="matrix(1.00287 0 0 1 149.252 121)"/><path d="M87.5776 13.8203C88.7783 13.8203 89.7585 14.0898 90.5671 14.6534 91.3757 15.217 91.9638 15.9522 92.3804 16.9323 92.797 17.888 92.993 18.9907 92.993 20.2404L92.993 21.2695 83.0198 21.2695C83.0198 23.1319 83.4609 24.5531 84.3186 25.5333 85.1762 26.5134 86.4259 27.028 88.0432 27.028 88.9008 27.028 89.6604 26.9545 90.2975 26.8075 90.9347 26.6604 91.6453 26.4154 92.4294 26.0968L92.4294 27.4691C91.7188 27.7876 91.0327 28.0082 90.3466 28.1552 89.6604 28.3022 88.8763 28.3757 87.9697 28.3757 85.8623 28.3757 84.245 27.7386 83.1423 26.4644 82.0152 25.1902 81.4516 23.4504 81.4516 21.245 81.4516 19.8238 81.6966 18.5741 82.1622 17.4714 82.6523 16.3687 83.3384 15.4866 84.245 14.8495 85.1762 14.1389 86.2789 13.8203 87.5776 13.8203ZM87.5531 15.07C86.2789 15.07 85.2252 15.5111 84.4411 16.3687 83.6324 17.2264 83.1914 18.4516 83.0688 20.0198L91.4492 20.0198C91.4492 18.5496 91.1307 17.3489 90.4936 16.4422 89.832 15.5356 88.8763 15.07 87.5531 15.07Z" fill="#FFFFFF" transform="matrix(1.00287 0 0 1 149.252 121)"/><path d="M103.946 18.9662C103.75 18.3781 103.579 17.839 103.456 17.2999 103.309 16.7853 103.187 16.2952 103.089 15.8541L103.015 15.8541C102.917 16.2952 102.795 16.7853 102.648 17.3244 102.501 17.8635 102.329 18.4271 102.158 18.9907L99.217 28.0572 97.6243 28.0572 93.6791 14.0898 95.2474 14.0898 97.5753 22.7153C97.7958 23.4994 97.9673 24.1855 98.0898 24.7736 98.2369 25.3617 98.3349 25.8763 98.4329 26.3419L98.5064 26.3419C98.6044 25.9253 98.7024 25.4107 98.8495 24.8471 98.9965 24.259 99.1925 23.6219 99.4131 22.9358L102.305 14.1144 103.824 14.1144 106.617 22.9358C106.813 23.5729 106.985 24.1855 107.156 24.7736 107.328 25.3617 107.45 25.8763 107.548 26.3174L107.622 26.3174C107.671 25.9008 107.769 25.3862 107.916 24.7981 108.063 24.21 108.235 23.4994 108.431 22.7153L110.709 14.0898 112.229 14.0898 108.431 28.0572 106.813 28.0572 103.946 18.9662Z" fill="#FFFFFF" transform="matrix(1.00287 0 0 1 149.252 121)"/><path d="M119.212 13.8448C120.781 13.8448 121.957 14.2369 122.741 14.9965 123.501 15.7561 123.893 16.9813 123.893 18.6476L123.893 28.0572 122.765 28.0572 122.496 25.6803 122.422 25.6803C121.908 26.4644 121.295 27.1015 120.56 27.5916 119.825 28.0817 118.82 28.3022 117.522 28.3022 116.174 28.3022 115.12 27.9592 114.336 27.2976 113.576 26.6114 113.184 25.6558 113.184 24.4061 113.184 23.0093 113.748 21.9312 114.9 21.2205 116.027 20.4854 117.693 20.0933 119.874 19.9953L122.422 19.8728 122.422 18.8926C122.422 17.5204 122.153 16.5648 121.589 15.9767 121.026 15.3886 120.217 15.119 119.163 15.119 118.453 15.119 117.742 15.217 117.081 15.4131 116.419 15.6091 115.757 15.8541 115.096 16.1727L114.63 14.972C115.292 14.6534 116.027 14.3839 116.786 14.1879 117.571 13.9428 118.379 13.8448 119.212 13.8448ZM120.046 21.098C118.257 21.196 116.933 21.4901 116.076 22.0292 115.218 22.5683 114.777 23.3524 114.777 24.4061 114.777 25.2882 115.047 25.9498 115.586 26.3909 116.125 26.832 116.86 27.0525 117.816 27.0525 119.261 27.0525 120.389 26.6359 121.197 25.8028 122.006 24.9697 122.422 23.818 122.422 22.3477L122.422 20.9755 120.046 21.098Z" fill="#FFFFFF" transform="matrix(1.00287 0 0 1 149.252 121)"/><path d="M133.449 13.8448C134.135 13.8448 134.772 13.9183 135.336 14.0653L135.091 15.4621C134.527 15.3151 133.964 15.217 133.351 15.217 132.077 15.217 131.048 15.6826 130.313 16.6383 129.553 17.5939 129.186 18.8436 129.186 20.3874L129.186 28.0572 127.691 28.0572 127.691 14.0898 128.94 14.0898 129.088 16.6873 129.161 16.6873C129.504 15.9032 130.043 15.217 130.754 14.6779 131.513 14.1144 132.396 13.8448 133.449 13.8448Z" fill="#FFFFFF" transform="matrix(1.00287 0 0 1 149.252 121)"/><path d="M141.903 28.3267C140.016 28.3267 138.595 27.7386 137.59 26.5379 136.586 25.3372 136.071 23.5729 136.071 21.2205 136.071 18.8191 136.586 16.9813 137.639 15.7316 138.693 14.4819 140.163 13.8448 142.026 13.8448 143.202 13.8448 144.158 14.1144 144.868 14.6289 145.603 15.1435 146.142 15.7806 146.51 16.5158L146.608 16.5158C146.583 16.1237 146.559 15.6581 146.534 15.168 146.51 14.6779 146.485 14.2124 146.485 13.7958L146.485 8.08635 147.98 8.08635 147.98 28.0572 146.779 28.0572 146.559 25.6068 146.485 25.6068C146.118 26.3664 145.554 27.0035 144.819 27.5181 144.133 28.0572 143.128 28.3267 141.903 28.3267ZM142.075 27.028C143.692 27.028 144.844 26.5379 145.505 25.5578 146.191 24.5776 146.534 23.1564 146.534 21.294L146.534 21.049C146.534 19.1132 146.191 17.6429 145.53 16.6138 144.844 15.5846 143.741 15.07 142.173 15.07 140.678 15.07 139.526 15.6091 138.767 16.6628 138.007 17.7165 137.615 19.2357 137.615 21.196 137.615 23.0828 137.982 24.5286 138.718 25.5088 139.453 26.5379 140.58 27.028 142.075 27.028Z" fill="#FFFFFF" transform="matrix(1.00287 0 0 1 149.252 121)"/><path d="M157.267 13.8203C158.468 13.8203 159.448 14.0898 160.257 14.6534 161.065 15.217 161.653 15.9522 162.07 16.9323 162.487 17.888 162.683 18.9907 162.683 20.2404L162.683 21.2695 152.709 21.2695C152.709 23.1319 153.151 24.5531 154.008 25.5333 154.866 26.5134 156.116 27.028 157.733 27.028 158.59 27.028 159.35 26.9545 159.987 26.8075 160.624 26.6604 161.335 26.4154 162.119 26.0968L162.119 27.4691C161.408 27.7876 160.722 28.0082 160.036 28.1552 159.35 28.3022 158.566 28.3757 157.659 28.3757 155.552 28.3757 153.935 27.7386 152.832 26.4644 151.705 25.1902 151.141 23.4504 151.141 21.245 151.141 19.8238 151.386 18.5741 151.852 17.4714 152.342 16.3687 153.028 15.4866 153.935 14.8495 154.866 14.1389 155.968 13.8203 157.267 13.8203ZM157.243 15.07C155.968 15.07 154.915 15.5111 154.131 16.3687 153.322 17.2264 152.881 18.4516 152.758 20.0198L161.139 20.0198C161.139 18.5496 160.82 17.3489 160.183 16.4422 159.522 15.5356 158.541 15.07 157.243 15.07Z" fill="#FFFFFF" transform="matrix(1.00287 0 0 1 149.252 121)"/><path d="M170.818 28.3267C168.931 28.3267 167.51 27.7386 166.505 26.5379 165.501 25.3372 164.986 23.5729 164.986 21.2205 164.986 18.8191 165.501 16.9813 166.554 15.7316 167.608 14.4819 169.078 13.8448 170.94 13.8448 172.117 13.8448 173.072 14.1144 173.783 14.6289 174.518 15.1435 175.057 15.7806 175.425 16.5158L175.523 16.5158C175.498 16.1237 175.474 15.6581 175.449 15.168 175.425 14.6779 175.4 14.2124 175.4 13.7958L175.4 8.08635 176.895 8.08635 176.895 28.0572 175.694 28.0572 175.474 25.6068 175.449 25.6068C175.082 26.3664 174.518 27.0035 173.783 27.5181 173.048 28.0572 172.068 28.3267 170.818 28.3267ZM171.014 27.028C172.631 27.028 173.783 26.5379 174.445 25.5578 175.131 24.5776 175.474 23.1564 175.474 21.294L175.474 21.049C175.474 19.1132 175.131 17.6429 174.469 16.6138 173.783 15.5846 172.68 15.07 171.112 15.07 169.617 15.07 168.466 15.6091 167.706 16.6628 166.946 17.7165 166.554 19.2357 166.554 21.196 166.554 23.0828 166.922 24.5286 167.657 25.5088 168.368 26.5379 169.495 27.028 171.014 27.028Z" fill="#FFFFFF" transform="matrix(1.00287 0 0 1 149.252 121)"/><path d="M180.644 27.028C180.644 26.1704 181.012 25.7293 181.771 25.7293 182.555 25.7293 182.947 26.1704 182.947 27.028 182.947 27.9102 182.555 28.3512 181.771 28.3512 181.036 28.3512 180.644 27.9102 180.644 27.028Z" fill="#FFFFFF" transform="matrix(1.00287 0 0 1 149.252 121)"/><path d="M27.5671 3.45508C27.7876 2.4259 26.979 1.71529 25.7783 0.686114 25.5823 0.514586 25.3617 0.318553 25.1167 0.0980163 25.0187 0.0245041 24.8961-0.0245041 24.7736 0.0245041 23.3524 0.490082 20.9755 2.81797 14.0408 16.4912 13.9673 16.6383 13.9918 16.8098 14.1144 16.9078 14.1634 16.9568 14.2369 17.0058 14.3104 17.0058 13.8693 17.9615 13.0852 19.5298 11.9335 20.6079 11.7375 20.0443 11.4679 18.9907 11.2719 18.2555 10.7573 16.0747 10.5368 15.4376 10.2672 15.2415 8.55193 7.52275 7.52275 2.71995 7.93932 0.931155 7.96383 0.808635 7.93932 0.686114 7.84131 0.588098 7.74329 0.490082 7.62077 0.465578 7.49825 0.490082 5.21937 0.980163 2.69545 2.18086 2.54842 3.43057 2.52392 3.70012 2.57293 4.2147 3.33256 4.58226 3.35706 4.60677 3.38156 4.60677 3.43057 4.60677 3.82264 4.68028 4.1902 4.43524 4.58226 4.16569 4.7783 4.01867 4.99883 3.87165 5.21937 3.77363 4.97433 4.8028 4.8273 5.73396 5.24387 6.27305 5.36639 6.42007 5.51342 6.54259 5.70945 6.6161 7.59627 18.8681 8.84597 22.1762 9.80163 22.9603 9.11552 24.112 8.55193 25.0922 7.96383 26.1214 6.37106 28.9148 4.72929 31.8308 0.0980163 38.2509-0.147025 38.839 0.147025 39.8436 0.808635 40.7013 1.44574 41.5099 2.25438 41.9755 3.08751 41.9755 3.18553 41.9755 3.28355 41.9755 3.40607 41.951 3.50408 41.9265 3.6021 41.8775 3.67561 41.7795 6.05251 37.9078 8.72345 33.4481 11.3209 29.1354 17.6184 18.6231 24.1365 7.74329 27.5426 3.55309 27.5426 3.55309 27.5671 3.50408 27.5671 3.45508Z" fill="#FFFFFF" transform="matrix(1.00287 0 0 1 149.252 121)"/><path d="M57.5111 25.5578C57.5111 25.5578 57.4866 25.5333 57.4866 25.5333 57.4866 25.5088 57.4866 25.5088 57.4621 25.4842 57.1925 24.9942 56.825 24.6756 56.4084 24.5776 56.1634 24.5286 55.7713 24.5286 55.3792 24.7981L55.2322 24.8716C55.1832 24.8961 55.1587 24.9207 55.1342 24.9452 55.1097 24.9452 55.1097 24.9452 55.0852 24.9452 54.056 25.1657 52.7083 26.3664 52.5613 27.5671 52.4632 28.2532 52.7818 28.8168 53.4924 29.1844 53.7375 29.2824 53.9825 29.3069 54.252 29.3069 55.3302 29.3069 56.5799 28.6453 57.217 27.8611 57.8541 27.1505 57.9522 26.2929 57.5111 25.5578Z" fill="#FFFFFF" transform="matrix(1.00287 0 0 1 149.252 121)"/><path d="M53.1249 18.8926C54.1295 16.6628 55.1832 14.3839 56.0408 11.86 56.0653 11.811 56.0653 11.7375 56.0653 11.6884 56.0898 11.6394 56.1143 11.5659 56.1389 11.5169 56.2369 11.2719 56.3349 11.0268 56.1879 10.8308 56.1879 10.8308 56.1879 10.8308 56.1879 10.8063 56.1879 10.7573 56.1879 10.7083 56.1634 10.6593 56.1879 10.5613 56.1879 10.4632 56.1143 10.3407 56.0898 10.3162 56.0653 10.2917 56.0408 10.2672 55.9918 10.1937 55.8938 10.1202 55.7468 10.1202 55.6978 10.0467 55.6488 9.97316 55.5508 9.92415 55.3302 9.80163 55.0607 9.89965 54.9872 9.92415 54.8891 9.85064 54.7421 9.82614 54.6441 9.89965 54.5951 9.92415 54.5461 9.94866 54.4971 9.97316 54.4236 9.97316 54.3501 9.99767 54.252 10.0467 54.2275 10.0467 54.203 10.0712 54.1785 10.0957 53.1739 10.7818 52.4877 12.105 51.7526 13.5017 51.2625 14.4574 50.748 15.4376 50.1354 16.2217 50.1354 16.2217 50.0863 16.2952 50.0863 16.2952 50.0373 16.3442 49.9638 16.4422 49.9148 16.5648 49.6943 16.7853 49.4002 17.1774 49.1062 17.5449 49.0572 17.6184 49.0082 17.6674 49.0082 17.6919 48.8856 17.7655 48.8121 17.8635 48.7141 18.0105 48.6406 18.0595 48.5916 18.133 48.5426 18.231 48.4446 18.3046 48.3466 18.4271 48.273 18.5496 48.224 18.6231 48.1505 18.7456 48.175 18.7456 48.0525 18.7701 47.9545 18.8681 47.9055 18.9907 47.881 19.0152 47.8565 19.0397 47.832 19.0642 47.7585 19.1377 47.7094 19.1867 47.6604 19.2357 47.5869 19.3092 47.5134 19.3827 47.4154 19.4807 47.3419 19.5543 47.2439 19.6768 47.1459 19.7503 47.0233 19.8238 46.9008 19.9953 46.7783 20.1424 46.5823 20.2894 46.3617 20.5099 46.1657 20.7305 45.9697 20.9265 45.7981 21.098 45.6511 21.2205 45.3816 21.4411 45.0875 21.7106 44.769 22.0047 44.2789 22.4457 43.7888 22.9113 43.2987 23.2054 43.2742 23.2299 43.2497 23.2544 43.2252 23.2789 42.7596 23.818 41.2404 24.8471 40.2847 25.4107 40.4317 24.6511 40.8483 23.4994 41.1914 22.8868 42.0735 20.4609 43.1517 17.79 44.1809 15.266 44.1809 15.2415 44.2054 15.217 44.2054 15.1925L44.2054 15.1925C44.2544 15.1435 44.2789 15.07 44.3034 14.9965 44.4749 14.6534 44.72 14.1144 44.7935 13.8203 44.965 13.4527 45.0875 12.6931 45.0385 12.3991 45.0875 12.252 45.063 12.1295 44.9895 12.007 44.965 11.762 44.8425 11.4679 44.818 11.4189 44.7445 11.3209 44.6464 11.2719 44.5239 11.2719 44.4749 11.1984 44.3769 11.1249 44.2789 11.0758 44.2299 11.0513 44.1809 11.0513 44.1319 11.0513 44.0093 10.9533 43.8623 10.8798 43.7398 10.8553 43.7153 10.8553 43.6908 10.8553 43.6418 10.8553 43.5928 10.8063 43.4947 10.7573 43.4212 10.7573 43.3967 10.7328 43.3477 10.7328 43.3232 10.7083 43.2987 10.6838 43.2987 10.6838 43.2742 10.6593 43.2252 10.6103 43.1517 10.6103 43.1027 10.5858 43.0782 10.5613 43.0537 10.5613 43.0047 10.5368 42.9312 10.5123 42.8331 10.4877 42.7106 10.5368 42.3921 10.4877 41.6814 10.3897 41.3139 10.4877 41.1179 10.4877 40.4807 10.5123 40.3337 10.4877L40.3337 10.4877C40.2357 10.4632 40.1622 10.4632 40.0887 10.4877 39.8926 10.5368 39.4761 10.5368 39.1085 10.5123 38.6674 10.5123 38.2754 10.4877 38.0058 10.5613 36.7806 10.5858 34.5753 10.7083 33.252 10.9778 33.154 11.0023 33.0805 11.0758 33.056 11.1739 32.7865 11.1984 32.4924 11.2229 32.1739 11.2474 32.1494 11.2474 32.1494 11.2474 32.1249 11.2474 32.0758 11.2474 31.9778 11.2719 31.9043 11.2964 31.8553 11.2964 31.7573 11.3209 31.6593 11.4189 31.6348 11.4189 31.6348 11.4434 31.6103 11.4434 31.5613 11.4679 31.4877 11.4924 31.4387 11.5414 30.8996 11.4924 30.189 11.909 29.895 12.203 29.8215 12.2765 29.7725 12.3746 29.797 12.4971 29.6009 12.5706 29.4539 12.6931 29.5029 12.9382 29.5029 12.9872 29.5274 13.0117 29.5519 13.0362 29.5519 13.1097 29.5764 13.1587 29.6009 13.2322 29.6744 13.3547 29.797 13.3792 29.895 13.4037 29.9685 13.5263 30.1645 13.5753 30.3116 13.5753 30.3851 13.6978 30.5076 13.8203 30.6791 13.8448 30.7036 13.8448 30.7281 13.8693 30.7281 13.8693 30.8261 13.8938 31.1937 13.9428 31.4387 13.8448 32.2964 13.8693 33.2765 15.6336 33.5461 16.8343 33.5461 16.8343 33.5461 16.8343 33.5461 16.8588 33.5461 16.8833 33.5461 16.9323 33.5706 16.9568 33.6931 17.3244 33.6196 18.133 33.5216 18.7456 33.4726 18.8436 33.4236 18.9907 33.4236 19.1132L33.3991 19.2112C33.3256 19.3827 33.2765 19.5788 33.252 19.7748L33.252 19.7993C33.1295 19.9708 33.0315 20.1424 33.0315 20.2894L32.9825 20.4119C32.8845 20.6569 32.7375 20.9755 32.5414 21.245 31.4142 23.0583 29.3559 25.2882 27.3711 26.1949 27.224 26.2439 26.979 26.3664 26.881 26.4154 26.6604 26.5134 26.2929 26.5869 25.9743 26.6359 25.7293 26.6604 25.4842 26.7095 25.2637 26.7585 25.2637 26.7585 25.2637 26.7585 25.2637 26.7585 25.2147 26.734 25.1657 26.7095 25.1167 26.6849 25.1167 26.6849 25.1167 26.6604 25.0922 26.6604 25.0187 26.5624 24.9452 26.4889 24.8471 26.4644 24.7981 26.3664 24.7001 26.2684 24.5286 26.1704 24.4551 25.9498 24.3816 25.7783 24.3081 25.6558 24.2835 25.5823 24.2835 25.5088 24.259 25.4352 24.2835 25.3617 24.2835 25.2637 24.259 25.1657 24.2835 25.0922 24.2835 24.9942 24.259 24.9207 24.3326 24.7736 24.3571 24.6266 24.3081 24.5041 24.3081 24.5041 24.3081 24.5041 24.3081 24.5041 24.3571 24.4061 24.3816 24.2835 24.3816 24.1855 24.3816 24.1855 24.3816 24.161 24.3816 24.161 24.4061 24.112 24.4061 24.063 24.4061 24.014 24.4061 23.965 24.3816 23.916 24.3816 23.867 24.3816 23.8425 24.3571 23.818 24.3571 23.818 24.4551 23.7445 24.5286 23.6219 24.5286 23.4994 24.5531 23.4994 24.5531 23.4749 24.5776 23.4749 24.6266 23.4259 24.6511 23.3524 24.6756 23.2789 24.7001 23.2054 24.7001 23.1319 24.7001 23.0828 24.7246 23.0583 24.7246 23.0338 24.7246 22.9848 24.7491 22.9603 24.7491 22.9358 24.7736 22.9113 24.7981 22.8868 24.7981 22.8378 24.7981 22.7888 24.8471 22.7153 24.8471 22.6173 24.8471 22.5438 24.8961 22.4947 24.9207 22.4457 24.9452 22.3967 25.0187 22.3477 25.0922 22.2742 25.1167 22.2007 25.1412 22.1517 25.1167 22.0782 25.0922 22.0292 25.0922 22.0047 25.1167 21.9802 25.1167 21.9557 25.1412 21.9312 25.1412 21.9067 25.1657 21.8821 25.2147 21.8331 25.2392 21.7596 25.2392 21.6861 25.2882 21.6126 25.3127 21.5391 25.3372 21.4656 25.3617 21.4411 25.4107 21.3921 25.4352 21.3676 25.5088 21.2695 25.5333 21.147 25.5333 21.049 25.5578 20.9755 25.5823 20.902 25.6068 20.8285 25.7048 20.7305 25.8028 20.5589 25.7538 20.3629 25.7783 20.3384 25.7783 20.3139 25.7783 20.2649 25.8763 20.1669 25.9498 20.0688 25.9498 19.8973 25.9988 19.8483 26.0968 19.7258 26.0968 19.5788 26.1214 19.5543 26.1459 19.5053 26.1459 19.4807 26.1949 19.4072 26.2439 19.2847 26.2439 19.1867 26.3174 19.0887 26.3664 18.9907 26.3909 18.8926 26.4154 18.8436 26.4644 18.7946 26.4644 18.7456 26.4644 18.7456 26.4644 18.7211 26.4644 18.7211 26.4644 18.6966 26.4889 18.6721 26.4889 18.6231 26.5134 18.5986 26.5134 18.5986 26.5379 18.5741 26.5869 18.5251 26.6114 18.4271 26.6359 18.3291 26.6359 18.3046 26.6604 18.28 26.6604 18.2555 26.6604 18.2555 26.6604 18.2555 26.6604 18.231 26.6604 18.231 26.6849 18.2065 26.6849 18.2065 26.7585 18.133 26.8075 18.035 26.8075 17.9615 26.9545 17.741 27.1505 17.3489 27.224 17.1039 27.2976 17.0303 27.3221 16.9813 27.2976 16.9813 27.4201 16.8098 27.4936 16.5893 27.5671 16.3932 27.6896 16.0992 27.7876 15.8296 27.9837 15.6581 28.0327 15.6091 28.0572 15.5846 28.0572 15.5356 28.1307 15.4376 28.1797 15.3641 28.2042 15.2905 28.2532 15.2415 28.3022 15.168 28.3022 15.0945 28.3022 15.0945 28.3022 15.07 28.3022 15.07 28.3512 14.9965 28.4002 14.8985 28.4982 14.776 28.5963 14.6044 28.7188 14.4084 28.7678 14.3349 28.8168 14.3104 28.8413 14.2614 28.8658 14.1879 28.8658 14.1634 28.8903 14.1144 28.8903 14.0898 28.8903 14.0653 28.9148 14.0408 28.9148 14.0163 28.9393 13.9673 28.9883 13.9183 29.0128 13.8693 29.0373 13.8203 29.0373 13.7713 29.0373 13.7223 29.0618 13.6733 29.1354 13.5998 29.1354 13.5508 29.1844 13.4772 29.2334 13.3792 29.2579 13.2567 29.2824 13.2322 29.3069 13.1832 29.3069 13.1342 29.3314 13.0852 29.3314 13.0607 29.3314 13.0117 29.3314 12.9137 29.3559 12.8401 29.3804 12.7666 29.4294 12.6441 29.4784 12.4481 29.3559 12.252 29.3314 12.203 29.2824 12.1785 29.2579 12.1295 29.2579 12.105 29.2579 12.0805 29.2334 12.0315 29.2334 11.9335 29.1844 11.8355 29.0863 11.762 28.9148 11.6149 28.7433 11.6394 28.5963 11.7375 28.5228 11.6639 28.3757 11.6149 28.2532 11.6149 28.2287 11.6149 28.2287 11.6149 28.2042 11.6149 28.1797 11.5904 28.1552 11.5904 28.1552 11.5659 27.8121 11.2964 27.273 11.5169 25.8273 12.4726L25.6313 12.6196C25.2147 13.0362 24.7981 13.5017 24.4061 13.9428 24.21 14.1634 24.0385 14.3839 23.8425 14.5799 23.818 14.6044 23.7935 14.6289 23.7935 14.6534 23.6954 14.727 23.6709 14.8005 23.6464 14.8495 23.6464 14.8495 23.6464 14.874 23.6464 14.874 23.5239 15.021 23.4259 15.1925 23.3769 15.266L23.3769 15.266C23.2544 15.3396 23.0338 15.4866 23.0583 15.7316 23.0338 15.7561 23.0093 15.7806 22.9848 15.8296 22.8868 15.8786 22.8133 15.9767 22.7888 16.0502 22.7888 16.0747 22.7888 16.0992 22.7888 16.1237 22.7643 16.1727 22.7398 16.2217 22.7153 16.2707 22.6663 16.3197 22.6173 16.3687 22.5928 16.4422 22.5193 16.4912 22.4702 16.5648 22.4457 16.6383 22.4457 16.6628 22.4457 16.6628 22.4457 16.6873 22.4457 16.6873 22.4457 16.7118 22.4457 16.7118 22.4457 16.7363 22.4212 16.7853 22.4212 16.8098 22.3722 16.8588 22.3477 16.9078 22.3232 16.9813 22.2252 17.0303 22.1517 17.1284 22.1027 17.2509 22.0292 17.2999 22.0047 17.3979 21.9802 17.4714 21.9557 17.5204 21.9312 17.5694 21.9312 17.6184 21.8331 17.7165 21.7596 17.839 21.7351 17.9615 21.7106 17.986 21.7106 17.986 21.6861 18.0105 21.6371 18.0595 21.6126 18.133 21.5881 18.2065 21.5391 18.231 21.4901 18.28 21.4656 18.3536 21.4411 18.4026 21.4166 18.4761 21.4166 18.5496 21.3921 18.5741 21.3676 18.6231 21.3431 18.6721 21.294 18.7211 21.2695 18.7701 21.2205 18.8436 21.2205 18.8681 21.2205 18.8926 21.196 18.8926 21.196 18.8926 21.1715 18.9172 21.1715 18.9172 21.1225 18.9907 21.098 19.0887 21.098 19.1622 20.951 19.3337 20.7305 19.6523 20.7305 19.9463 20.6814 19.9953 20.6569 20.0688 20.6569 20.1179 20.4854 20.3874 20.4364 20.5344 20.4119 20.6814 20.2649 20.804 20.2404 20.951 20.2159 21.0735 20.0933 21.147 19.9708 21.294 19.9708 21.3921 19.9708 21.3921 19.9708 21.3921 19.9708 21.4166 19.8728 21.5146 19.8483 21.6371 19.8728 21.7351 19.7993 21.8086 19.7748 21.9067 19.7748 22.0047L19.7748 22.0047C19.7503 22.0782 19.6768 22.1762 19.6768 22.3232 19.6768 22.3232 19.6768 22.3477 19.6523 22.3477 19.6523 22.3722 19.6033 22.4457 19.5788 22.5683 19.5543 22.5928 19.5298 22.6418 19.5298 22.6908 19.5053 22.7398 19.5053 22.8133 19.5053 22.8868 19.4562 22.9603 19.4317 23.0583 19.4317 23.1809 19.4317 23.1809 19.4317 23.1809 19.4317 23.1809 19.4072 23.2299 19.4072 23.2544 19.3827 23.2789 19.3582 23.3524 19.3582 23.4014 19.3582 23.4504 19.3337 23.4994 19.3092 23.5484 19.3092 23.5729 19.2357 23.6464 19.1867 23.7445 19.2112 23.8915 19.2112 23.916 19.2357 23.965 19.2357 23.9895 19.2357 24.0385 19.2357 24.112 19.2357 24.161 19.2112 24.2345 19.1867 24.3081 19.1867 24.3816 19.1622 24.4306 19.1622 24.4796 19.1622 24.5286 19.1132 24.6266 19.0887 24.7246 19.1132 24.8226 19.0887 24.9207 19.1132 24.9942 19.1377 25.0677 19.1132 25.0922 19.1132 25.1167 19.0887 25.1412 19.0397 25.2392 19.0397 25.3372 19.0887 25.4352 19.0887 25.4842 19.0887 25.5088 19.0887 25.5578 19.0887 25.6558 19.1132 25.7538 19.1622 25.8518 19.1622 25.8518 19.1622 25.8763 19.1622 25.9008 19.1377 25.9988 19.1622 26.0968 19.2112 26.1704 19.2112 26.1949 19.2112 26.2194 19.2112 26.2439 19.1867 26.3174 19.1867 26.3664 19.1867 26.4399 19.1867 26.4889 19.2112 26.5624 19.2602 26.6114 19.2602 26.6604 19.2847 26.7095 19.2847 26.7585 19.2847 26.783 19.2847 26.8075 19.2847 26.8565 19.2847 26.9545 19.3092 27.0525 19.3582 27.1015 19.3827 27.126 19.3827 27.126 19.4072 27.1505 19.4317 27.2485 19.4562 27.3711 19.5298 27.4691 19.5298 27.4936 19.5298 27.5181 19.5298 27.5426 19.5298 27.6651 19.5788 27.7876 19.7258 27.8856 19.7258 27.8856 19.7258 27.8856 19.7503 27.9102 19.7748 28.0082 19.8238 28.1062 19.9218 28.1797 20.0443 28.3757 20.2404 28.5473 20.4119 28.6453L20.5589 28.7678C21 29.1354 21.5146 29.5274 22.0292 29.6989 22.5928 29.993 23.2544 30.091 23.8915 30.091 24.7491 30.091 25.5823 29.895 26.0478 29.748 26.1704 29.748 26.2929 29.6989 26.4399 29.6499 26.5134 29.6499 26.5869 29.6254 26.6359 29.5764 26.783 29.4784 26.979 29.3804 27.175 29.3069L27.3221 29.2334C28.4737 28.7188 29.6254 28.1307 30.3361 27.3956 31.0222 27.0035 31.5368 26.4644 31.9778 25.9988 32.1249 25.8518 32.2474 25.7048 32.3944 25.5578 32.4924 25.5333 32.5659 25.4597 32.6149 25.4107 32.6394 25.3862 32.6394 25.3617 32.6639 25.3127 32.6884 25.2882 32.7375 25.2637 32.762 25.2147 32.86 25.1657 32.9825 25.0432 33.056 24.9207 33.1295 24.8716 33.1785 24.8226 33.203 24.7491 33.252 24.7001 33.2765 24.6756 33.2765 24.6266 33.3256 24.5776 33.3501 24.5286 33.3746 24.4796 33.4726 24.4306 33.5216 24.3326 33.5706 24.259 33.6686 24.21 33.7911 24.1365 33.8401 23.9895 33.8891 23.9405 33.9872 23.8425 34.0362 23.72 34.0607 23.6954 34.1097 23.6464 34.1342 23.6219 34.1587 23.5729 34.2077 23.5484 34.2567 23.4994 34.3057 23.4504 34.4527 23.3524 34.4527 23.1809 34.4772 23.1564 34.5018 23.1319 34.5263 23.0828 34.5753 23.0583 34.6243 22.9848 34.6488 22.9358L34.6733 22.8623C34.7958 22.7643 34.8448 22.6173 34.8938 22.4702 34.9673 22.4212 35.0163 22.3722 35.0653 22.2987 35.0898 22.2742 35.0898 22.2497 35.0898 22.2007 35.2124 22.0537 35.3594 21.8086 35.4084 21.5636 35.4329 21.5146 35.4574 21.4656 35.4819 21.4166 35.5309 21.3431 35.5554 21.2695 35.5799 21.196 35.6534 21.098 35.727 20.9755 35.7515 20.853 35.8005 20.804 35.8495 20.755 35.874 20.7059 35.8985 20.6569 35.8985 20.6079 35.8985 20.5589 35.8985 20.5344 35.923 20.5099 35.923 20.4609 35.9475 20.4119 35.9965 20.3629 35.9965 20.3139 36.0455 20.1424 36.119 19.9463 36.1925 19.7258 36.3396 19.2847 36.5111 18.7946 36.5601 18.4026 36.5846 18.3536 36.6091 18.2555 36.6091 18.1575 36.6336 18.035 36.6826 17.8635 36.6581 17.6919 36.6826 17.6429 36.6826 17.5694 36.6826 17.4959 36.7561 17.1039 36.7071 16.5158 36.6336 16.1482 36.6336 16.0257 36.5846 15.9032 36.5356 15.7316 36.5111 15.6826 36.4866 15.6091 36.4866 15.5846 36.4866 15.5356 36.4866 15.4621 36.4621 15.4131 36.3886 15.2415 36.1925 14.9475 36.0455 14.727L35.9965 14.6534C35.972 14.5554 35.8985 14.4574 35.8005 14.3594 35.776 14.3104 35.727 14.2614 35.6779 14.2124 35.6534 14.1634 35.6044 14.1389 35.5554 14.1144 35.5309 14.0653 35.5064 14.0408 35.4819 13.9918 35.4819 13.9428 35.4574 13.9183 35.4329 13.8693 36.8786 13.9428 38.3734 14.0653 39.7701 14.1879 39.8681 14.2124 40.0152 14.2369 40.2602 14.2614 39.9662 14.7024 39.6476 15.217 39.4271 15.6336L39.3291 15.8296C38.6674 16.6383 36.5356 21.6371 36.3151 22.5438 36.3151 22.5683 36.3151 22.5928 36.3151 22.6173 36.2906 22.6908 36.266 22.7888 36.217 22.8868 36.119 23.1074 36.07 23.3034 36.0455 23.4504 35.923 23.7935 35.776 24.4306 35.8005 24.7981L35.776 24.8716C35.6779 25.2147 35.6289 25.4107 35.6534 25.5823L35.6534 25.6068C35.6534 25.7293 35.6289 25.8763 35.6779 26.0478 35.6779 26.2929 35.6779 26.6114 35.727 26.8565 35.7024 27.0035 35.7515 27.1505 35.8005 27.2485 35.825 27.2976 35.825 27.3221 35.8495 27.2976 35.825 27.4201 35.874 27.5426 35.972 27.6406 35.972 27.6406 35.9965 27.6651 35.9965 27.6651 36.021 27.7141 36.0455 27.7631 36.0945 27.8366 36.1925 28.0082 36.266 28.1552 36.3641 28.2777 36.3641 28.2777 36.3641 28.3022 36.3641 28.3022 36.4376 28.5228 36.6581 28.6453 36.8541 28.6943 36.8786 28.7433 36.9522 28.8168 37.0502 28.8413 37.0992 28.8903 37.1727 28.9148 37.2462 28.9148 37.2952 28.9148 37.3932 28.9393 37.4667 28.9883 37.6628 29.0618 37.8833 29.1354 38.1284 29.1109 38.2019 29.1599 38.2754 29.1844 38.3244 29.1599 38.3734 29.1599 38.4224 29.1354 38.4469 29.1354 38.4469 29.1354 38.4469 29.1354 38.4469 29.1354 38.4714 29.1354 38.5204 29.1354 38.5449 29.1109 38.888 29.1599 39.4026 28.9393 39.5986 28.8903 39.9171 28.8903 40.3092 28.6453 40.7013 28.3512 40.7013 28.3512 40.7013 28.3512 40.7013 28.3512 40.7013 28.3512 40.7258 28.3512 40.7258 28.3512 40.8483 28.3267 41.0688 28.2532 41.2649 28.1062 41.3629 28.1062 41.4609 28.0817 41.5344 28.0082L41.755 27.7876C41.7795 27.7631 41.8285 27.7141 41.853 27.6896 41.9265 27.6651 42.0245 27.5916 42.0735 27.5426 42.098 27.5426 42.1225 27.5181 42.147 27.5181 42.5636 27.2485 43.1517 26.783 43.4702 26.5134 44.0828 26.1214 44.6464 25.5823 45.1855 25.0677 45.5531 24.7246 45.8716 24.4061 46.2147 24.1365 46.2392 24.112 46.2637 24.0875 46.2882 24.063 46.3127 24.063 46.3127 24.0385 46.3372 24.0385L46.4352 23.9405C46.5578 23.818 46.8763 23.4994 46.9743 23.4259 46.9988 23.4259 46.9988 23.4014 47.0233 23.4014 46.8273 23.9405 46.7538 24.21 46.7538 24.3571 46.7048 24.4796 46.6313 24.7001 46.6068 24.7491 46.5823 24.7981 46.5578 24.8716 46.5578 24.9452 46.5578 24.9697 46.5578 24.9942 46.5578 25.0187 46.5333 25.0922 46.5088 25.1902 46.4597 25.2882 46.3617 25.5823 46.2882 25.7783 46.3372 25.9498L46.3372 25.9498C46.3127 26.0233 46.2882 26.1214 46.2882 26.2194 46.2637 26.2929 46.2637 26.3909 46.2882 26.4889 46.2637 26.5869 46.2392 26.7585 46.2882 26.9055 46.3127 27.077 46.3372 27.3711 46.3862 27.5426 46.3372 27.8611 46.6068 28.1797 46.8028 28.3757L46.8518 28.4247C47.0968 28.8658 47.5624 29.3804 48.0035 29.6989 48.028 29.7235 48.0525 29.7235 48.1015 29.748 48.126 29.7725 48.1505 29.797 48.175 29.8215 48.224 29.846 48.273 29.8705 48.3221 29.8705 48.3711 29.895 48.3956 29.895 48.4446 29.895 48.5916 29.9195 48.8121 29.993 48.9837 29.8705 48.9837 29.8705 49.0082 29.8705 49.0082 29.8705 49.2042 29.895 49.4492 29.9195 49.6698 29.797 49.6943 29.797 49.7923 29.7235 49.8168 29.6989 49.8413 29.6744 49.8658 29.6499 49.8903 29.6499 49.9883 29.6254 50.1109 29.5764 50.1599 29.4784 50.1599 29.4784 50.1599 29.4539 50.1844 29.4539 50.2824 29.4294 50.3559 29.3804 50.4049 29.3069 50.4539 29.2579 50.4784 29.2089 50.4784 29.1354 50.5519 29.0618 50.6989 28.9393 50.7725 28.8903 50.895 28.8168 50.9685 28.6698 50.944 28.5473 50.9685 28.4492 50.9685 28.3512 50.944 28.2777 50.9195 28.2287 50.8705 28.1797 50.8215 28.1307 50.797 28.0817 50.748 28.0082 50.6744 27.9592 50.6499 27.8856 50.6009 27.7876 50.5029 27.7386 50.4294 27.6896 50.2579 27.6161 50.0373 27.7141 50.0373 27.7141 50.0128 27.7141 50.0128 27.7141 50.0128 27.6896 49.9883 27.6896 49.9883 27.6651 50.0128 27.224 50.2334 26.5134 50.4049 25.9988 50.4784 25.7538 50.5519 25.5333 50.6009 25.3617 50.6254 25.2637 50.6499 25.1657 50.6744 25.0432 50.748 24.6756 50.8705 24.1855 51.042 23.965 51.091 23.8915 51.1155 23.8425 51.1155 23.7445 51.1155 23.6464 51.2625 23.3279 51.3361 23.1319 51.4341 22.8868 51.5076 22.6908 51.5321 22.5438 51.7281 22.2252 51.9242 21.6861 51.9487 21.4656 52.0467 21.1715 52.1937 20.902 52.3162 20.6324 52.4877 20.2649 52.6838 19.8973 52.8063 19.5053L53.1249 18.8926ZM47.4399 25.7048 47.4399 25.7048 47.4399 25.7048C47.4399 25.7293 47.4399 25.7048 47.4399 25.7048ZM37.0502 24.259 37.0502 24.259C37.0502 24.2835 37.0257 24.2835 37.0502 24.259L37.0502 24.259ZM25.6803 20.2649C25.6803 20.2649 25.6803 20.2649 25.6803 20.2649 25.6803 20.2649 25.6803 20.2649 25.6803 20.2649 25.6803 20.2649 25.6803 20.2649 25.6803 20.2649Z" fill="#FFFFFF" transform="matrix(1.00287 0 0 1 149.252 121)"/></g></svg>